# xmcd
#
# Track frame offsets:
#	150
#	16744
#	30381
#	44197
#	63688
#	74661
#	84106
#	101889
#	116257
#	131879
#	144038
#	159006
#	172669
#
# Disc length: 2452 seconds
# Revision: 0
# Processed by: cddbd v1.5.2PL0 Copyright (c) Steve Scherf et al.
# Submitted via: dBpowerAMP V12.0
#
DISCID=a209920d
DTITLE=Don Williams - Borrowed tales
DYEAR=2002
DGENRE=Ballad
TTITLE0=Fever
TTITLE1=Pretend
TTITLE2=Crying in the rain
TTITLE3=You've got a friend
TTITLE4=Reason to believe
TTITLE5=My rifle, my pony and me
TTITLE6=If you could read my mind
TTITLE7=The long black veil
TTITLE8=Games people play
TTITLE9=I'll be there
TTITLE10=Lay down Sally
TTITLE11=Peace train
TTITLE12=The letter
EXTD=
EXTT0=
EXTT1=
EXTT2=
EXTT3=
EXTT4=
EXTT5=
EXTT6=
EXTT7=
EXTT8=
EXTT9=
EXTT10=
EXTT11=
EXTT12=
PLAYORDER=
